<svg id="Capa_1" enable-background="new 0 0 512 512" height="512" viewBox="0 0 512 512" width="512" xmlns="http://www.w3.org/2000/svg"><g><circle cx="346" cy="217.5" r="7.5"/><path d="m376 0h-240c-20.678 0-37.5 16.822-37.5 37.5v437c0 20.678 16.822 37.5 37.5 37.5h240c20.678 0 37.5-16.822 37.5-37.5v-437c0-20.678-16.822-37.5-37.5-37.5zm-262.5 474.5v-437c0-9.778 6.271-18.114 15-21.21v353.21c0 4.142 3.358 7.5 7.5 7.5s7.5-3.358 7.5-7.5v-354.5h225v482h-225v-97.5c0-4.142-3.358-7.5-7.5-7.5s-7.5 3.358-7.5 7.5v96.21c-8.729-3.096-15-11.432-15-21.21zm285 0c0 9.778-6.271 18.114-15 21.21v-479.42c8.729 3.096 15 11.432 15 21.21z"/><path d="m166 120h180c4.142 0 7.5-3.358 7.5-7.5v-45c0-4.142-3.358-7.5-7.5-7.5h-180c-4.142 0-7.5 3.358-7.5 7.5v45c0 4.142 3.358 7.5 7.5 7.5zm7.5-45h165v30h-165z"/><path d="m166 195h180c4.142 0 7.5-3.358 7.5-7.5v-45c0-4.142-3.358-7.5-7.5-7.5h-180c-4.142 0-7.5 3.358-7.5 7.5v45c0 4.142 3.358 7.5 7.5 7.5zm7.5-45h165v30h-165z"/><path d="m256 347c-20.678 0-37.5 16.822-37.5 37.5s16.822 37.5 37.5 37.5 37.5-16.822 37.5-37.5-16.822-37.5-37.5-37.5zm0 60c-12.407 0-22.5-10.093-22.5-22.5s10.093-22.5 22.5-22.5 22.5 10.093 22.5 22.5-10.093 22.5-22.5 22.5z"/><path d="m256 317c-37.22 0-67.5 30.28-67.5 67.5s30.28 67.5 67.5 67.5 67.5-30.28 67.5-67.5-30.28-67.5-67.5-67.5zm0 120c-28.949 0-52.5-23.551-52.5-52.5s23.551-52.5 52.5-52.5 52.5 23.551 52.5 52.5-23.551 52.5-52.5 52.5z"/></g></svg>