<?xml version="1.0" encoding="iso-8859-1"?>
<!-- Generator: Adobe Illustrator 19.0.0, SVG Export Plug-In . SVG Version: 6.00 Build 0)  -->
<svg version="1.1" id="Layer_1" xmlns="http://www.w3.org/2000/svg" xmlns:xlink="http://www.w3.org/1999/xlink" x="0px" y="0px"
	 viewBox="0 0 512 512" style="enable-background:new 0 0 512 512;" xml:space="preserve">
<path style="fill:#E8E8E8;" d="M376.36,512H135.64c-8.632-0.04-15.616-7.04-15.64-15.672V15.672C120.024,7.04,127.008,0.04,135.64,0
	h240.72c8.632,0.04,15.616,7.04,15.64,15.672v480.656C391.976,504.96,384.992,511.96,376.36,512z"/>
<rect x="133.928" y="42.144" width="244.152" height="414.168"/>
<g>
	<circle style="fill:#AAAAAA;" cx="268.6" cy="13.536" r="4.128"/>
	<path style="fill:#AAAAAA;" d="M294.896,32.64h-52.592c-1.712-0.008-3.088-1.384-3.096-3.096v-2.056
		c0.008-1.712,1.384-3.088,3.096-3.096h52.592c1.712,0.008,3.088,1.384,3.096,3.096v2.064
		C297.976,31.256,296.6,32.632,294.896,32.64z"/>
	<circle style="fill:#AAAAAA;" cx="226.8" cy="28.52" r="4.128"/>
</g>
<g style="opacity:0.15;">
	<polygon style="fill:#FFFFFF;" points="133.928,215.32 133.928,42.144 339.68,42.144 	"/>
</g>
<circle style="fill:#AAAAAA;" cx="256" cy="484.16" r="20.464"/>
<path style="fill:#FFFFFF;" d="M256,493.904c-5.392,0-9.76-4.368-9.76-9.76s4.368-9.76,9.76-9.76s9.76,4.368,9.76,9.76
	C265.752,489.536,261.392,493.896,256,493.904z M256,477.056c-3.912,0.008-7.088,3.184-7.08,7.096s3.184,7.088,7.096,7.08
	s7.088-3.184,7.08-7.096S259.912,477.048,256,477.056L256,477.056z"/>
<g>
</g>
<g>
</g>
<g>
</g>
<g>
</g>
<g>
</g>
<g>
</g>
<g>
</g>
<g>
</g>
<g>
</g>
<g>
</g>
<g>
</g>
<g>
</g>
<g>
</g>
<g>
</g>
<g>
</g>
</svg>
