<?xml version="1.0" encoding="iso-8859-1"?>
<!-- Generator: Adobe Illustrator 19.0.0, SVG Export Plug-In . SVG Version: 6.00 Build 0)  -->
<svg version="1.1" id="Capa_1" xmlns="http://www.w3.org/2000/svg" xmlns:xlink="http://www.w3.org/1999/xlink" x="0px" y="0px"
	 viewBox="0 0 512.001 512.001" style="enable-background:new 0 0 512.001 512.001;" xml:space="preserve">
<path style="fill:#4A5A5E;" d="M255.457,269.8c-4.215,0-7.63-3.416-7.63-7.63v-55.118c0-20.376,16.578-36.954,36.954-36.954h13.585
	c11.962,0,21.694-9.732,21.694-21.694v-20.707c0-11.962-9.732-21.694-21.694-21.694h-12.651c-20.376,0-36.954-16.578-36.954-36.954
	V9.506c0-4.215,3.416-7.63,7.63-7.63c4.215,0,7.63,3.416,7.63,7.63V69.05c0,11.962,9.732,21.694,21.694,21.694h12.651
	c20.376,0,36.954,16.578,36.954,36.954v20.707c0,20.376-16.578,36.954-36.954,36.954h-13.585c-11.962,0-21.694,9.732-21.694,21.694
	v55.118C263.087,266.384,259.672,269.8,255.457,269.8z"/>
<path style="fill:#1BCECE;" d="M273.845,220.08h-36.038c-4.706,0-8.521,3.815-8.521,8.521v31.4c0,4.706,3.815,8.521,8.521,8.521
	h36.038c4.706,0,8.521-3.815,8.521-8.521v-31.4C282.366,223.895,278.551,220.08,273.845,220.08z"/>
<path style="fill:#DFEAEF;" d="M491.061,510.124H20.939C9.374,510.124,0,500.75,0,489.186V275.724
	c0-11.564,9.374-20.939,20.939-20.939h470.123c11.564,0,20.939,9.374,20.939,20.939v213.462
	C512,500.75,502.625,510.124,491.061,510.124z"/>
<path style="fill:#BFCFD6;" d="M491.061,254.786h-34.544c1.081,2.526,1.682,5.305,1.682,8.227v213.462
	c0,11.564-9.375,20.938-20.939,20.938H1.682c3.197,7.473,10.613,12.712,19.256,12.712h470.123c11.564,0,20.939-9.375,20.939-20.939
	V275.724C512,264.16,502.625,254.786,491.061,254.786z"/>
<g>
	<path style="fill:#FFFFFF;" d="M72.4,332.158H38.27c-2.638,0-4.777-2.139-4.777-4.777v-31.409c0-2.638,2.139-4.777,4.777-4.777
		H72.4c2.638,0,4.777,2.139,4.777,4.777v31.409C77.177,330.019,75.038,332.158,72.4,332.158z"/>
	<path style="fill:#FFFFFF;" d="M139.288,332.158h-34.13c-2.638,0-4.777-2.139-4.777-4.777v-31.409c0-2.638,2.139-4.777,4.777-4.777
		h34.13c2.638,0,4.777,2.139,4.777,4.777v31.409C144.065,330.019,141.927,332.158,139.288,332.158z"/>
	<path style="fill:#FFFFFF;" d="M206.177,332.158h-34.13c-2.638,0-4.777-2.139-4.777-4.777v-31.409c0-2.638,2.139-4.777,4.777-4.777
		h34.13c2.638,0,4.777,2.139,4.777,4.777v31.409C210.954,330.019,208.815,332.158,206.177,332.158z"/>
	<path style="fill:#FFFFFF;" d="M273.065,332.158h-34.13c-2.638,0-4.777-2.139-4.777-4.777v-31.409c0-2.638,2.139-4.777,4.777-4.777
		h34.13c2.638,0,4.777,2.139,4.777,4.777v31.409C277.842,330.019,275.703,332.158,273.065,332.158z"/>
	<path style="fill:#FFFFFF;" d="M339.954,332.158h-34.13c-2.638,0-4.777-2.139-4.777-4.777v-31.409c0-2.638,2.139-4.777,4.777-4.777
		h34.13c2.638,0,4.777,2.139,4.777,4.777v31.409C344.731,330.019,342.592,332.158,339.954,332.158z"/>
	<path style="fill:#FFFFFF;" d="M406.842,332.158h-34.13c-2.638,0-4.777-2.139-4.777-4.777v-31.409c0-2.638,2.139-4.777,4.777-4.777
		h34.13c2.638,0,4.777,2.139,4.777,4.777v31.409C411.619,330.019,409.48,332.158,406.842,332.158z"/>
	<path style="fill:#FFFFFF;" d="M473.73,332.158H439.6c-2.638,0-4.777-2.139-4.777-4.777v-31.409c0-2.638,2.139-4.777,4.777-4.777
		h34.13c2.638,0,4.777,2.139,4.777,4.777v31.409C478.508,330.019,476.369,332.158,473.73,332.158z"/>
	<path style="fill:#FFFFFF;" d="M101.635,406.373H38.27c-2.638,0-4.777-2.139-4.777-4.777v-31.409c0-2.638,2.139-4.777,4.777-4.777
		h63.366c2.638,0,4.777,2.139,4.777,4.777v31.409C106.412,404.234,104.274,406.373,101.635,406.373z"/>
	<path style="fill:#FFFFFF;" d="M473.73,406.373h-63.366c-2.638,0-4.777-2.139-4.777-4.777v-31.409c0-2.638,2.139-4.777,4.777-4.777
		h63.366c2.638,0,4.777,2.139,4.777,4.777v31.409C478.508,404.234,476.369,406.373,473.73,406.373z"/>
	<path style="fill:#FFFFFF;" d="M169.801,406.373h-34.13c-2.638,0-4.777-2.139-4.777-4.777v-31.409c0-2.638,2.139-4.777,4.777-4.777
		h34.13c2.638,0,4.777,2.139,4.777,4.777v31.409C174.578,404.234,172.44,406.373,169.801,406.373z"/>
	<path style="fill:#FFFFFF;" d="M238.644,406.373h-34.13c-2.638,0-4.777-2.139-4.777-4.777v-31.409c0-2.638,2.139-4.777,4.777-4.777
		h34.13c2.638,0,4.777,2.139,4.777,4.777v31.409C243.421,404.234,241.282,406.373,238.644,406.373z"/>
	<path style="fill:#FFFFFF;" d="M307.486,406.373h-34.13c-2.638,0-4.777-2.139-4.777-4.777v-31.409c0-2.638,2.139-4.777,4.777-4.777
		h34.13c2.638,0,4.777,2.139,4.777,4.777v31.409C312.264,404.234,310.125,406.373,307.486,406.373z"/>
	<path style="fill:#FFFFFF;" d="M376.329,406.373h-34.13c-2.638,0-4.777-2.139-4.777-4.777v-31.409c0-2.638,2.139-4.777,4.777-4.777
		h34.13c2.638,0,4.777,2.139,4.777,4.777v31.409C381.106,404.234,378.967,406.373,376.329,406.373z"/>
	<path style="fill:#FFFFFF;" d="M400.81,480.588H111.19c-2.638,0-4.777-2.139-4.777-4.777v-31.409c0-2.638,2.139-4.777,4.777-4.777
		h289.62c2.638,0,4.777,2.139,4.777,4.777v31.409C405.587,478.449,403.449,480.588,400.81,480.588z"/>
	<path style="fill:#FFFFFF;" d="M72.4,480.588H38.27c-2.638,0-4.777-2.139-4.777-4.777v-31.409c0-2.638,2.139-4.777,4.777-4.777
		H72.4c2.638,0,4.777,2.139,4.777,4.777v31.409C77.177,478.449,75.038,480.588,72.4,480.588z"/>
	<path style="fill:#FFFFFF;" d="M473.73,480.588H439.6c-2.638,0-4.777-2.139-4.777-4.777v-31.409c0-2.638,2.139-4.777,4.777-4.777
		h34.13c2.638,0,4.777,2.139,4.777,4.777v31.409C478.508,478.449,476.369,480.588,473.73,480.588z"/>
</g>
<g>
</g>
<g>
</g>
<g>
</g>
<g>
</g>
<g>
</g>
<g>
</g>
<g>
</g>
<g>
</g>
<g>
</g>
<g>
</g>
<g>
</g>
<g>
</g>
<g>
</g>
<g>
</g>
<g>
</g>
</svg>
