<?xml version="1.0" encoding="iso-8859-1"?>
<!-- Generator: Adobe Illustrator 19.0.0, SVG Export Plug-In . SVG Version: 6.00 Build 0)  -->
<svg version="1.1" id="Capa_1" xmlns="http://www.w3.org/2000/svg" xmlns:xlink="http://www.w3.org/1999/xlink" x="0px" y="0px"
	 viewBox="0 0 480 480" style="enable-background:new 0 0 480 480;" xml:space="preserve">
<g>
	<g>
		<g>
			<path d="M240,0C107.452,0,0,107.452,0,240s107.452,240,240,240c132.486-0.15,239.85-107.514,240-240C480,107.452,372.548,0,240,0
				z M240,464C116.288,464,16,363.712,16,240S116.288,16,240,16c123.653,0.141,223.859,100.347,224,224
				C464,363.712,363.712,464,240,464z"/>
			<path d="M312,120c-26.51,0-48,21.49-48,48c0,26.51,21.49,48,48,48c26.499-0.026,47.974-21.501,48-48
				C360,141.49,338.51,120,312,120z M312,200c-17.673,0-32-14.327-32-32s14.327-32,32-32c17.673,0,32,14.327,32,32
				S329.673,200,312,200z"/>
			<path d="M312,264c-26.51,0-48,21.49-48,48c0,26.51,21.49,48,48,48c26.499-0.026,47.974-21.501,48-48
				C360,285.49,338.51,264,312,264z M312,344c-17.673,0-32-14.327-32-32c0-17.673,14.327-32,32-32c17.673,0,32,14.327,32,32
				C344,329.673,329.673,344,312,344z"/>
			<path d="M168,120c-26.51,0-48,21.49-48,48c0,26.51,21.49,48,48,48c26.499-0.026,47.974-21.501,48-48
				C216,141.49,194.51,120,168,120z M168,200c-17.673,0-32-14.327-32-32s14.327-32,32-32s32,14.327,32,32S185.673,200,168,200z"/>
			<path d="M168,264c-26.51,0-48,21.49-48,48c0,26.51,21.49,48,48,48c26.499-0.026,47.974-21.501,48-48
				C216,285.49,194.51,264,168,264z M168,344c-17.673,0-32-14.327-32-32c0-17.673,14.327-32,32-32s32,14.327,32,32
				C200,329.673,185.673,344,168,344z"/>
		</g>
	</g>
</g>
<g>
</g>
<g>
</g>
<g>
</g>
<g>
</g>
<g>
</g>
<g>
</g>
<g>
</g>
<g>
</g>
<g>
</g>
<g>
</g>
<g>
</g>
<g>
</g>
<g>
</g>
<g>
</g>
<g>
</g>
</svg>
