<svg id="Capa_1" enable-background="new 0 0 512.001 512.001" height="512" viewBox="0 0 512.001 512.001" width="512" xmlns="http://www.w3.org/2000/svg"><g><g><path d="m373.832 145.78c-1.947 0-3.896-.743-5.383-2.229-2.972-2.973-2.972-7.792 0-10.765l40.502-40.502c2.032-2.031 2.032-5.337 0-7.368-5.588-5.589-8.665-13.018-8.665-20.921s3.077-15.332 8.666-20.92c11.295-11.298 29.869-11.492 41.398-.432l.526.505c2.03 1.945 5.299 1.913 7.288-.079l40.841-40.841c2.973-2.971 7.792-2.971 10.765 0 2.972 2.973 2.972 7.792 0 10.765l-40.84 40.842c-7.805 7.802-20.629 7.937-28.594.298l-.526-.505c-5.596-5.367-14.611-5.273-20.094.212-2.714 2.714-4.207 6.32-4.207 10.156s1.494 7.443 4.207 10.156c7.966 7.967 7.966 20.931 0 28.898l-40.502 40.502c-1.486 1.485-3.435 2.228-5.382 2.228z" fill="#544f57"/></g><g><path d="m368.248 172.749-28.996-28.996 20.298-20.298c8.007-8.007 20.989-8.007 28.996 0 8.007 8.007 8.007 20.989 0 28.996z" fill="#454045"/><path d="m42.038 469.963c-56.05-56.05-56.05-146.925 0-202.975l110.186-110.188c56.05-56.05 146.925-56.05 202.975 0 56.05 56.05 56.05 146.925 0 202.975l-110.186 110.188c-56.05 56.05-146.925 56.05-202.975 0z" fill="#efecef"/><path d="m392.393 221.24c-13.166 37.702-37.153 76.154-70.901 109.902-85.476 85.476-201.134 108.404-258.328 51.21-25.937-25.937-35.395-63.897-30.017-105.614-46.973 56.387-44.016 140.317 8.891 193.224 56.05 56.05 146.925 56.05 202.975 0l110.187-110.186c37.534-37.534 49.928-90.684 37.193-138.536z" fill="#d3ced5"/></g><path d="m355.2 156.801c-1.806-1.806-3.649-3.551-5.525-5.241l-59.641 59.64c-2.972 2.973-2.972 7.792 0 10.765 1.487 1.486 3.434 2.229 5.383 2.229 1.947 0 3.896-.743 5.383-2.229l59.641-59.64c-1.69-1.875-3.435-3.718-5.241-5.524z" fill="#d3ced5"/><g><path d="m231.965 287.647c-1.948 0-3.896-.743-5.382-2.229-2.973-2.973-2.973-7.792 0-10.765l37.681-37.682c2.973-2.971 7.792-2.971 10.765 0 2.972 2.973 2.972 7.792 0 10.765l-37.682 37.682c-1.487 1.486-3.434 2.229-5.382 2.229z" fill="#d3ced5"/></g><path d="m253.712 258.288c-8.007-8.007-8.007-20.989 0-28.996l28.997-28.997c8.007-8.007 20.989-8.007 28.996 0 8.007 8.007 8.007 20.989 0 28.996l-28.997 28.997c-8.007 8.007-20.989 8.007-28.996 0z" fill="#544f57"/></g></svg>