<?xml version="1.0" encoding="iso-8859-1"?>
<!-- Generator: Adobe Illustrator 19.0.0, SVG Export Plug-In . SVG Version: 6.00 Build 0)  -->
<svg version="1.1" id="Layer_1" xmlns="http://www.w3.org/2000/svg" xmlns:xlink="http://www.w3.org/1999/xlink" x="0px" y="0px"
	 viewBox="0 0 512 512" style="enable-background:new 0 0 512 512;" xml:space="preserve">
<g>
	<g>
		<path d="M298.667,0h-85.333C136.875,0,74.667,62.208,74.667,138.667v192C74.667,430.656,156.011,512,256,512
			s181.333-81.344,181.333-181.333v-192C437.333,62.208,375.125,0,298.667,0z M256,85.333c5.888,0,10.667,4.779,10.667,10.667v64
			c0,5.888-4.779,10.667-10.667,10.667c-5.888,0-10.667-4.779-10.667-10.667V96C245.333,90.112,250.112,85.333,256,85.333z
			 M416,330.667c0,88.235-71.765,160-160,160s-160-71.765-160-160v-192c0-64.704,52.629-117.333,117.333-117.333h32v44.629
			C232.939,70.379,224,82.112,224,96v64c0,17.643,14.357,32,32,32s32-14.357,32-32V96c0-13.888-8.939-25.621-21.333-30.037V21.333
			h32C363.371,21.333,416,73.963,416,138.667V330.667z"/>
	</g>
</g>
<g>
</g>
<g>
</g>
<g>
</g>
<g>
</g>
<g>
</g>
<g>
</g>
<g>
</g>
<g>
</g>
<g>
</g>
<g>
</g>
<g>
</g>
<g>
</g>
<g>
</g>
<g>
</g>
<g>
</g>
</svg>
