<?xml version="1.0" encoding="iso-8859-1"?>
<!-- Generator: Adobe Illustrator 19.0.0, SVG Export Plug-In . SVG Version: 6.00 Build 0)  -->
<svg version="1.1" id="Layer_1" xmlns="http://www.w3.org/2000/svg" xmlns:xlink="http://www.w3.org/1999/xlink" x="0px" y="0px"
	 viewBox="0 0 512 512" style="enable-background:new 0 0 512 512;" xml:space="preserve">
<path style="fill:#53565C;" d="M406,30h-30v152h60c8.291,0,15-6.709,15-15V75C451,50.186,430.814,30,406,30z"/>
<path style="fill:#5C5F66;" d="M136,30h-30c-24.814,0-45,20.186-45,45v92c0,8.291,6.709,15,15,15h60V30z"/>
<path style="fill:#DBE2F2;" d="M376,182H136c-8.291,0-15-6.709-15-15V15c0-8.291,6.709-15,15-15h240c8.291,0,15,6.709,15,15v152
	C391,175.291,384.291,182,376,182z"/>
<path style="fill:#CFD6E6;" d="M376,0H256v182h120c8.291,0,15-6.709,15-15V15C391,6.709,384.291,0,376,0z"/>
<path style="fill:#7C8089;" d="M467,152H45c-24.814,0-45,20.186-45,45v150c0,24.814,20.186,45,45,45h422c24.814,0,45-20.186,45-45
	V197C512,172.186,491.814,152,467,152z"/>
<path style="fill:#72767F;" d="M467,152H256v240h211c24.814,0,45-20.186,45-45V197C512,172.186,491.814,152,467,152z"/>
<path style="fill:#7BCC29;" d="M436,242h-30c-8.291,0-15-6.709-15-15s6.709-15,15-15h30c8.291,0,15,6.709,15,15S444.291,242,436,242
	z"/>
<g>
	<path style="fill:#DBE2F2;" d="M195.854,242.293c-8.291,0-15.146-6.855-15.146-15.146S187.562,212,195.854,212
		c8.291,0,15.146,6.855,15.146,15.146S204.145,242.293,195.854,242.293z M210.707,227.146H211H210.707z M195.854,227.146h0.293
		H195.854z"/>
	<path style="fill:#DBE2F2;" d="M256,212c-8.401,0-15.3,6.899-15.3,15c0,8.399,6.899,15.3,15.3,15.3c8.101,0,15-6.901,15-15.3
		C271,218.899,264.101,212,256,212z"/>
</g>
<g>
	<path style="fill:#DAE2F2;" d="M315.854,242.293c-8.291,0-15.146-6.855-15.146-15.146S307.562,212,315.854,212
		c8.291,0,15.146,6.855,15.146,15.146S324.145,242.293,315.854,242.293z M330.707,227.146H331H330.707z M315.854,227.146h0.293
		H315.854z"/>
	<path style="fill:#DAE2F2;" d="M271,227c0,8.399-6.899,15.3-15,15.3V212C264.101,212,271,218.899,271,227z"/>
</g>
<path style="fill:#DBE2F2;" d="M376,512H136c-8.291,0-15-6.709-15-15V317c0-8.291,6.709-15,15-15h240c8.291,0,15,6.709,15,15v180
	C391,505.291,384.291,512,376,512z"/>
<path style="fill:#CFD6E6;" d="M376,302H256v210h120c8.291,0,15-6.709,15-15V317C391,308.709,384.291,302,376,302z"/>
<path style="fill:#5C5F66;" d="M406,332H106c-8.291,0-15-6.709-15-15s6.709-15,15-15h300c8.291,0,15,6.709,15,15
	S414.291,332,406,332z"/>
<path style="fill:#53565C;" d="M406,302H256v30h150c8.291,0,15-6.709,15-15S414.291,302,406,302z"/>
<path style="fill:#4DA6FF;" d="M316,452H196c-8.291,0-15-6.709-15-15s6.709-15,15-15h120c8.291,0,15,6.709,15,15
	S324.291,452,316,452z"/>
<path style="fill:#4596E6;" d="M316,422h-60v30h60c8.291,0,15-6.709,15-15S324.291,422,316,422z"/>
<path style="fill:#4DA6FF;" d="M316,392H196c-8.291,0-15-6.709-15-15s6.709-15,15-15h120c8.291,0,15,6.709,15,15
	S324.291,392,316,392z"/>
<path style="fill:#4596E6;" d="M316,362h-60v30h60c8.291,0,15-6.709,15-15S324.291,362,316,362z"/>
<g>
</g>
<g>
</g>
<g>
</g>
<g>
</g>
<g>
</g>
<g>
</g>
<g>
</g>
<g>
</g>
<g>
</g>
<g>
</g>
<g>
</g>
<g>
</g>
<g>
</g>
<g>
</g>
<g>
</g>
</svg>
