<svg height="511pt" viewBox="0 -34 511.99957 511" width="511pt" xmlns="http://www.w3.org/2000/svg"><path d="m498.066406 406.457031c0 20.847657-16.898437 37.746094-37.746094 37.746094-20.847656 0-37.746093-16.898437-37.746093-37.746094 0-20.847656 16.898437-37.746093 37.746093-37.746093 20.847657 0 37.746094 16.898437 37.746094 37.746093zm0 0" fill="#575b7a"/><path d="m479.203125 373.777344c4.933594 6.378906 7.875 14.375 7.875 23.0625 0 20.847656-16.898437 37.75-37.746094 37.75-6.882812 0-13.328125-1.851563-18.882812-5.070313 6.90625 8.929688 17.710937 14.683594 29.871093 14.683594 20.847657 0 37.746094-16.898437 37.746094-37.746094 0-13.964843-7.589844-26.152343-18.863281-32.679687zm0 0" fill="#252d4c"/><path d="m474.347656 406.457031c0 7.746094-6.28125 14.027344-14.027344 14.027344-7.746093 0-14.027343-6.28125-14.027343-14.027344 0-7.746093 6.28125-14.027343 14.027343-14.027343 7.746094 0 14.027344 6.28125 14.027344 14.027343zm0 0" fill="#f0f0f2"/><path d="m279.660156 406.457031c0 20.847657-16.902344 37.746094-37.746094 37.746094-20.847656 0-37.75-16.898437-37.75-37.746094 0-20.847656 16.902344-37.746093 37.75-37.746093 20.84375 0 37.746094 16.898437 37.746094 37.746093zm0 0" fill="#575b7a"/><path d="m260.792969 373.777344c4.933593 6.378906 7.878906 14.375 7.878906 23.0625 0 20.847656-16.902344 37.75-37.75 37.75-6.878906 0-13.324219-1.851563-18.878906-5.070313 6.902343 8.929688 17.710937 14.683594 29.871093 14.683594 20.84375 0 37.746094-16.898437 37.746094-37.746094 0-13.964843-7.589844-26.152343-18.867187-32.679687zm0 0" fill="#252d4c"/><path d="m255.9375 406.457031c0 7.746094-6.277344 14.027344-14.023438 14.027344-7.746093 0-14.027343-6.28125-14.027343-14.027344 0-7.746093 6.28125-14.027343 14.027343-14.027343 7.746094 0 14.023438 6.28125 14.023438 14.027343zm0 0" fill="#f0f0f2"/><path d="m460.320312 400.15625c-4.265624 0-7.726562-3.457031-7.726562-7.726562v-42.851563c0-4.269531 3.460938-7.726563 7.726562-7.726563 4.265626 0 7.726563 3.457032 7.726563 7.726563v42.851563c0 4.269531-3.460937 7.726562-7.726563 7.726562zm-210.683593-7.726562v-42.851563c0-4.269531-3.457031-7.726563-7.722657-7.726563-4.269531 0-7.726562 3.457032-7.726562 7.726563v42.851563c0 4.269531 3.457031 7.726562 7.726562 7.726562 4.265626 0 7.722657-3.457031 7.722657-7.726562zm0 0" fill="#8cbafa"/><path d="m460.320312 341.851562c-4.265624 0-7.726562 3.457032-7.726562 7.726563v13.917969h15.453125v-13.917969c0-4.269531-3.460937-7.726563-7.726563-7.726563zm0 0" fill="#5692d8"/><path d="m241.914062 341.851562c-4.269531 0-7.726562 3.457032-7.726562 7.726563v13.917969h15.453125v-13.917969c-.003906-4.269531-3.460937-7.726563-7.726563-7.726563zm0 0" fill="#5692d8"/><path d="m512 337.65625c0 6.75-5.476562 12.234375-12.234375 12.234375h-274.257813c-11.265624 0-21.523437-6.199219-26.773437-16.160156-5.253906-9.960938-4.558594-21.921875 1.804687-31.210938l13.179688-19.25 29.203125-3.484375c.082031 2.507813-.601563 5.054688-2.132813 7.277344l-20.066406 29.285156c-1.78125 2.609375-.835937 5.046875-.34375 5.972656.488282.929688 1.964844 3.101563 5.128906 3.101563h274.253907c6.761719 0 12.238281 5.472656 12.238281 12.234375zm0 0" fill="#c8e7f7"/><path d="m499.765625 325.421875h-25.882813c6.761719 0 12.234376 5.472656 12.234376 12.234375 0 6.75-5.472657 12.234375-12.234376 12.234375h25.882813c6.757813 0 12.234375-5.484375 12.234375-12.234375 0-6.761719-5.476562-12.234375-12.234375-12.234375zm0 0" fill="#8cbcd6"/><path d="m501.789062 139.960938c0-.027344-.003906-.046876-.003906-.074219v-42.367188c0-11.070312-8.660156-20.203125-19.714844-20.785156l-224.902343-11.914063c-.089844-.003906-.183594-.011718-.277344-.015624l-111.832031-5.921876-1.734375-7.820312c-2.78125-12.53125-12.738281-22.125-25.363281-24.4375l-32.425782-5.945312c-4.195312-.765626-8.222656 2.011718-8.992187 6.207031-.765625 4.199219 2.011719 8.226562 6.207031 8.992187l32.425781 5.941406c6.503907 1.191407 11.628907 6.132813 13.0625 12.585938l43.027344 193.933594c0 .011718.003906.019531.007813.03125l6.609374 29.800781c1.949219 8.777344 9.648438 14.824219 18.425782 14.824219.757812 0 1.523437-.046875 2.289062-.140625l225.964844-26.976563 33.261719-3.964844c25.0625-3.003906 43.960937-24.292968 43.960937-49.527343v-72.335938c0-.03125.003906-.058593.003906-.089843zm-206.914062 125.84375-7.785156-49.476563 91.179687-6.027344 3.835938 45.089844zm-10.195312-64.804688-8.175782-51.964844 96.503906-.578125 3.953126 46.441407zm-119.46875-51.296875 95.664062-.574219 8.324219 52.894532-91.046875 6.019531zm202.5-63.554687 3.984374 46.863281-97.617187.585937-8.316406-52.847656zm20.800781 62.214843 97.820312-.585937v39.894531l-93.949219 6.210937zm97.820312-50.84375v34.808594l-99.136719.59375-3.90625-45.945313 97.964844 5.1875c2.847656.148438 5.078125 2.503907 5.078125 5.355469zm-236.34375-17.601562 8.460938 53.773437-96.660157.578125-13.253906-59.726562zm-53.222656 197.597656c-1.773437.207031-3.40625-.945313-3.796875-2.6875l-11.429688-51.523437 90.070313-5.953126 7.910156 50.285157zm259.226563-30.945313-58.535157 6.988282-3.765625-44.277344 92.640625-6.121094v9.226563c0 17.417969-13.042969 32.113281-30.339843 34.183593zm0 0" fill="#575b7a"/><path d="m80.023438 43.519531-67.03125-11.820312c-8.550782-1.507813-14.257813-9.660157-12.75-18.207031 1.507812-8.550782 9.660156-14.257813 18.207031-12.75l67.03125 11.816406c.765625.136718 1.277343.867187 1.140625 1.632812l-4.96875 28.1875c-.136719.765625-.863282 1.277344-1.628906 1.140625zm0 0" fill="#8cbafa"/></svg>