<?xml version="1.0"?>
<svg xmlns="http://www.w3.org/2000/svg" id="line" viewBox="0 0 64 64" width="512" height="512"><path d="M32,12a5,5,0,1,0,5,5A5.006,5.006,0,0,0,32,12Zm0,8a3,3,0,1,1,3-3A3,3,0,0,1,32,20Z"/><path d="M41,17h2A11.013,11.013,0,0,0,32,6V8A9.01,9.01,0,0,1,41,17Z"/><path d="M14,62H50a1,1,0,0,0,1-1V36h5a1,1,0,0,0,.707-1.707l-6-6A1,1,0,0,0,50,28H42.2a15,15,0,1,0-20.4,0H14a1,1,0,0,0-.707.293l-6,6A1,1,0,0,0,8,36h5V61A1,1,0,0,0,14,62Zm1-2V36H36a1,1,0,0,0,.707-.293L41,31.414V60Zm34,0H43V31.414l4.293,4.293A1,1,0,0,0,48,36h1Zm.586-30,4,4H48.414l-4-4ZM19,17A13,13,0,1,1,38.907,28H25.093A12.9,12.9,0,0,1,19,17ZM14.414,30H39.586l-4,4H10.414Z"/></svg>
